<?xml version="1.0" encoding="UTF-8" standalone="no"?>
<!-- Created with Inkscape (http://www.inkscape.org/) -->

<svg
   xmlns:dc="http://purl.org/dc/elements/1.1/"
   xmlns:cc="http://creativecommons.org/ns#"
   xmlns:rdf="http://www.w3.org/1999/02/22-rdf-syntax-ns#"
   xmlns:svg="http://www.w3.org/2000/svg"
   xmlns="http://www.w3.org/2000/svg"
   xmlns:sodipodi="http://sodipodi.sourceforge.net/DTD/sodipodi-0.dtd"
   xmlns:inkscape="http://www.inkscape.org/namespaces/inkscape"
   width="30"
   height="30"
   id="svg4033"
   version="1.1"
   inkscape:version="0.48.4 r9939"
   sodipodi:docname="New document 16">
  <defs
     id="defs4035" />
  <sodipodi:namedview
     id="base"
     pagecolor="#ffffff"
     bordercolor="#666666"
     borderopacity="1.0"
     inkscape:pageopacity="0.0"
     inkscape:pageshadow="2"
     inkscape:zoom="11.2"
     inkscape:cx="38.732593"
     inkscape:cy="4.8146323"
     inkscape:document-units="px"
     inkscape:current-layer="layer1"
     showgrid="false"
     inkscape:window-width="1366"
     inkscape:window-height="744"
     inkscape:window-x="0"
     inkscape:window-y="24"
     inkscape:window-maximized="1" />
  <metadata
     id="metadata4038">
    <rdf:RDF>
      <cc:Work
         rdf:about="">
        <dc:format>image/svg+xml</dc:format>
        <dc:type
           rdf:resource="http://purl.org/dc/dcmitype/StillImage" />
        <dc:title></dc:title>
      </cc:Work>
    </rdf:RDF>
  </metadata>
  <g
     inkscape:label="Layer 1"
     inkscape:groupmode="layer"
     id="layer1"
     transform="translate(0,-1022.3622)">
    <g
       id="g3293"
       transform="matrix(0.35415119,0,0,-0.35415119,2.3768778,1037.3366)"
       style="fill:#ffffff">
      <path
         inkscape:connector-curvature="0"
         d="m 0,0 c 0,-8.533 -0.005,-17.065 0.009,-25.598 0.001,-0.847 0.031,-1.712 0.199,-2.537 0.94,-4.628 4.696,-7.537 9.705,-7.539 17.175,-0.005 34.35,-0.005 51.526,0.007 0.791,0 1.599,0.04 2.372,0.197 4.628,0.945 7.537,4.699 7.539,9.707 0.005,17.175 0.004,34.35 -0.007,51.526 0,0.792 -0.04,1.599 -0.197,2.372 -0.926,4.542 -4.632,7.526 -9.46,7.532 -17.34,0.021 -34.68,0.009 -52.02,0.007 -1.787,0 -3.496,-0.347 -5.031,-1.296 C 1.468,32.422 -0.005,29.539 -0.002,25.846 0.005,17.23 0,8.615 0,0 m -6.468,-27.986 0,55.972 c 0.06,0.177 0.144,0.349 0.175,0.53 1.024,6.131 4.426,10.359 10.207,12.62 1.206,0.471 2.515,0.678 3.776,1.008 l 55.972,0 c 0.177,-0.06 0.349,-0.144 0.53,-0.175 6.131,-1.025 10.359,-4.427 12.62,-10.207 0.471,-1.206 0.678,-2.515 1.007,-3.776 l 0,-55.972 c -0.059,-0.177 -0.143,-0.349 -0.174,-0.531 -1.025,-6.13 -4.426,-10.358 -10.207,-12.619 -1.206,-0.471 -2.515,-0.678 -3.776,-1.008 l -55.972,0 c -0.177,0.06 -0.349,0.144 -0.53,0.175 -6.131,1.025 -10.359,4.427 -12.619,10.207 -0.473,1.205 -0.68,2.514 -1.009,3.776"
         style="fill:#ffffff;fill-opacity:1;fill-rule:nonzero;stroke:none"
         id="path3295" />
    </g>
    <g
       id="g3297"
       transform="matrix(0.35415119,0,0,-0.35415119,13.300959,1041.5546)"
       style="fill:#ffffff">
      <path
         inkscape:connector-curvature="0"
         d="m 0,0 c 0.361,0.52 0.548,0.783 0.729,1.05 8.11,11.958 16.22,23.915 24.329,35.873 0.17,0.249 0.332,0.505 0.518,0.741 1.07,1.352 2.724,1.702 4.175,0.774 1.823,-1.167 3.618,-2.383 5.37,-3.655 1.474,-1.07 1.671,-2.819 0.574,-4.45 C 33.383,26.899 31.051,23.479 28.728,20.052 21.036,8.706 13.355,-2.648 5.631,-13.974 c -0.57,-0.836 -1.336,-1.642 -2.193,-2.159 -1.833,-1.107 -3.591,-0.483 -5.209,0.653 -0.378,0.266 -0.715,0.598 -1.044,0.927 -5.726,5.72 -11.447,11.444 -17.167,17.168 -1.726,1.727 -1.732,3.418 -0.021,5.141 1.199,1.206 2.401,2.41 3.603,3.614 1.841,1.845 3.487,1.856 5.315,0.03 C -7.572,7.89 -4.06,4.38 -0.557,0.861 -0.348,0.649 -0.224,0.352 0,0"
         style="fill:#ffffff;fill-opacity:1;fill-rule:evenodd;stroke:none"
         id="tick" />
    </g>
    <g
       id="g3305"
       transform="matrix(1.25,0,0,-1.25,98.614995,1024.3135)"
       style="fill:#ffffff">
      <path
         inkscape:connector-curvature="0"
         d="m -63.316365,-12.159188 c 0.0068,-1.02475 -0.830696,-1.855469 -1.855469,-1.855469 l -3.599026,0 c -1.024771,0 -0.48455,-0.02636 -1.819753,-0.03739 l -0.03572,5.4918833 c -0.0067,1.0247512 0.830697,1.855469 1.855468,1.855469 l 3.599026,0 c 1.024773,0 -0.115799,0.026423 1.819755,-0.03404 z"
         style="fill:#ffffff;fill-opacity:1;fill-rule:evenodd;stroke:none"
         id="dot"
         sodipodi:nodetypes="ssscssscs" />
    </g>
  </g>
</svg>
